# xmcd
# 
# Track frame offsets:
#     150
#     12227
#     29215
#     50672
#     93840
#     109650
# 
# Disc length: 2102
# 
# Revision: 1
# Processed by: cddbd v1.5.2PL0 Copyright (c) Steve Scherf et al.
# Submitted via: fre:ac v1.0.31
# 
DISCID=48083406
DTITLE=Various Artist - 爵士樂天才班
DYEAR=0
DGENRE=Jazz
TTITLE0=Count Basie - The Kid From Red Bank
TTITLE1=Lee Konitz and Gerry Mulligan - Too Marvelous For Words
TTITLE2=Bud Powell - Un Poco Loco
TTITLE3=Art Blakey and The Jazz Messengers - Moanin'
TTITLE4=Thelonious Monk - Four in One
TTITLE5=John Coltrane - Blue Train
EXTD=
EXTT0=
EXTT1=
EXTT2=
EXTT3=
EXTT4=
EXTT5=
PLAYORDER=
